<?xml version="1.0" standalone="no"?><!DOCTYPE svg PUBLIC "-//W3C//DTD SVG 1.1//EN" "http://www.w3.org/Graphics/SVG/1.1/DTD/svg11.dtd"><svg t="1733413454608" class="icon" viewBox="0 0 1024 1024" version="1.1" xmlns="http://www.w3.org/2000/svg" p-id="1331" xmlns:xlink="http://www.w3.org/1999/xlink" width="200" height="200"><path d="M768 128a128 128 0 0 1 128 128v512a128 128 0 0 1-128 128H256a128 128 0 0 1-128-128V256a128 128 0 0 1 128-128h512zM512 347.456a82.304 82.304 0 0 0-32 158.08c-75.52 14.016-132.544 76.8-132.544 152.192 0 85.76 329.088 85.76 329.088 0 0-75.392-56.96-138.24-132.608-152.192A82.176 82.176 0 0 0 512 347.456z" fill="#bfbfbf" p-id="1332"></path></svg>